<?xml version="1.0" standalone="no"?>
<!DOCTYPE svg PUBLIC "-//W3C//DTD SVG 20010904//EN"
 "http://www.w3.org/TR/2001/REC-SVG-20010904/DTD/svg10.dtd">
<svg version="1.0" xmlns="http://www.w3.org/2000/svg"
 width="257.000000pt" height="56.000000pt" viewBox="0 0 257.000000 56.000000"
 preserveAspectRatio="xMidYMid meet">

<g transform="translate(0.000000,56.000000) scale(0.100000,-0.100000)"
fill="#38425e" stroke="none">
<path d="M0 280 l0 -280 1285 0 1285 0 0 280 0 280 -1285 0 -1285 0 0 -280z
m257 182 c7 -4 40 -74 73 -156 49 -117 59 -150 49 -162 -22 -27 -49 -16 -67
26 l-17 40 -66 0 -66 0 -18 -40 c-20 -45 -59 -56 -70 -21 -6 19 93 279 117
308 12 14 46 17 65 5z m321 -4 c8 -8 12 -50 12 -125 0 -102 2 -115 21 -134 17
-17 29 -20 57 -15 19 3 40 10 46 16 6 6 12 58 14 118 4 144 6 154 40 150 l27
-3 3 -121 c1 -67 -2 -133 -7 -148 -31 -81 -202 -91 -255 -14 -13 17 -16 50
-16 149 0 69 3 129 7 132 10 11 38 8 51 -5z m1032 -10 c60 -41 75 -71 74 -149
0 -77 -15 -106 -75 -147 -29 -20 -44 -23 -96 -20 -103 6 -156 63 -156 168 0
68 22 114 73 147 46 32 134 32 180 1z m804 -1 c29 -43 117 -269 114 -290 -2
-16 -10 -22 -28 -22 -19 0 -29 9 -42 38 l-18 37 -65 0 -65 0 -17 -37 c-14 -29
-24 -38 -43 -38 -17 0 -26 6 -28 20 -3 21 86 251 113 292 20 30 60 30 79 0z
m-1213 -16 c19 -19 29 -40 29 -59 0 -33 -31 -78 -59 -87 -17 -5 -16 -8 9 -35
40 -42 61 -91 48 -108 -20 -24 -52 -8 -85 43 -40 61 -68 85 -99 85 -22 0 -23
-4 -26 -67 -2 -56 -6 -68 -21 -71 -41 -8 -47 13 -47 162 0 97 4 146 12 154 8
8 47 12 111 12 96 0 99 -1 128 -29z m868 3 c24 -20 31 -34 31 -61 0 -46 -13
-68 -50 -83 -30 -12 -30 -13 -10 -27 28 -20 73 -100 66 -118 -3 -8 -17 -15
-30 -15 -20 0 -34 14 -66 60 -40 59 -65 80 -94 80 -12 0 -16 -11 -16 -51 0
-60 -13 -89 -41 -89 -30 0 -39 39 -39 165 0 63 4 125 10 139 9 26 11 26 109
26 92 0 102 -2 130 -26z"/>
<path d="M206 339 c-9 -30 -20 -60 -23 -66 -3 -9 9 -13 42 -13 45 0 47 1 41
24 -3 13 -14 43 -24 66 l-18 42 -18 -53z"/>
<path d="M1480 408 c-37 -20 -51 -55 -47 -121 4 -74 29 -102 88 -102 61 0 89
37 89 115 0 47 -5 64 -22 84 -28 31 -74 41 -108 24z"/>
<path d="M2355 339 c-10 -30 -20 -60 -23 -66 -3 -9 9 -13 43 -13 52 0 51 -4
15 89 l-17 45 -18 -55z"/>
<path d="M1020 365 l0 -45 48 0 c50 0 92 21 92 45 0 24 -42 45 -92 45 l-48 0
0 -45z"/>
<path d="M1900 364 l0 -46 56 4 c33 3 60 11 65 19 25 39 -6 69 -72 69 l-49 0
0 -46z"/>
</g>
</svg>
